<mxfile host="app.diagrams.net" modified="2020-06-15T06:23:38.975Z" agent="5.0 (Macintosh; Intel Mac OS X 10_13_6) AppleWebKit/537.36 (KHTML, like Gecko) Chrome/83.0.4103.97 Safari/537.36" etag="ko4uDwZ5a1c-kPY6B4MO" version="13.1.2" type="github">
  <diagram id="xDaqMbVTm9odR8-DioXX" name="第 1 页">
    <mxGraphModel dx="899" dy="623" grid="1" gridSize="10" guides="1" tooltips="1" connect="1" arrows="1" fold="1" page="1" pageScale="1" pageWidth="827" pageHeight="1169" math="0" shadow="0">
      <root>
        <mxCell id="0" />
        <mxCell id="1" parent="0" />
        <mxCell id="EJTIUBt2cEUTjr5KvXVu-7" value="" style="edgeStyle=orthogonalEdgeStyle;rounded=0;orthogonalLoop=1;jettySize=auto;html=1;strokeColor=#7EA6E0;" edge="1" parent="1" source="EJTIUBt2cEUTjr5KvXVu-1" target="EJTIUBt2cEUTjr5KvXVu-2">
          <mxGeometry relative="1" as="geometry" />
        </mxCell>
        <mxCell id="EJTIUBt2cEUTjr5KvXVu-1" value="ODS(Operational Data Store)" style="rounded=1;whiteSpace=wrap;html=1;fillColor=#f5f5f5;strokeColor=#666666;fontColor=#333333;" vertex="1" parent="1">
          <mxGeometry x="160" y="480" width="400" height="40" as="geometry" />
        </mxCell>
        <mxCell id="EJTIUBt2cEUTjr5KvXVu-8" value="" style="edgeStyle=orthogonalEdgeStyle;rounded=0;orthogonalLoop=1;jettySize=auto;html=1;strokeColor=#7EA6E0;" edge="1" parent="1" source="EJTIUBt2cEUTjr5KvXVu-2" target="EJTIUBt2cEUTjr5KvXVu-3">
          <mxGeometry relative="1" as="geometry" />
        </mxCell>
        <mxCell id="EJTIUBt2cEUTjr5KvXVu-2" value="DWD(Data Warehouse Detail)" style="rounded=1;whiteSpace=wrap;html=1;fillColor=#dae8fc;strokeColor=#6c8ebf;" vertex="1" parent="1">
          <mxGeometry x="160" y="400" width="400" height="40" as="geometry" />
        </mxCell>
        <mxCell id="EJTIUBt2cEUTjr5KvXVu-9" value="" style="edgeStyle=orthogonalEdgeStyle;rounded=0;orthogonalLoop=1;jettySize=auto;html=1;strokeColor=#7EA6E0;" edge="1" parent="1" source="EJTIUBt2cEUTjr5KvXVu-3" target="EJTIUBt2cEUTjr5KvXVu-4">
          <mxGeometry relative="1" as="geometry" />
        </mxCell>
        <mxCell id="EJTIUBt2cEUTjr5KvXVu-3" value="DWS(Data Warehouse Summary)" style="rounded=1;whiteSpace=wrap;html=1;fillColor=#e1d5e7;strokeColor=#9673a6;" vertex="1" parent="1">
          <mxGeometry x="280" y="320" width="280" height="40" as="geometry" />
        </mxCell>
        <mxCell id="EJTIUBt2cEUTjr5KvXVu-10" value="" style="edgeStyle=orthogonalEdgeStyle;rounded=0;orthogonalLoop=1;jettySize=auto;html=1;entryX=0.5;entryY=1;entryDx=0;entryDy=0;strokeColor=#7EA6E0;" edge="1" parent="1" source="EJTIUBt2cEUTjr5KvXVu-4" target="EJTIUBt2cEUTjr5KvXVu-5">
          <mxGeometry relative="1" as="geometry" />
        </mxCell>
        <mxCell id="EJTIUBt2cEUTjr5KvXVu-4" value="DWM(Data Warehouse Market)" style="rounded=1;whiteSpace=wrap;html=1;fillColor=#f8cecc;strokeColor=#b85450;" vertex="1" parent="1">
          <mxGeometry x="280" y="240" width="280" height="40" as="geometry" />
        </mxCell>
        <mxCell id="EJTIUBt2cEUTjr5KvXVu-12" style="edgeStyle=orthogonalEdgeStyle;rounded=0;orthogonalLoop=1;jettySize=auto;html=1;exitX=0.25;exitY=1;exitDx=0;exitDy=0;entryX=0.25;entryY=0;entryDx=0;entryDy=0;" edge="1" parent="1" source="EJTIUBt2cEUTjr5KvXVu-5" target="EJTIUBt2cEUTjr5KvXVu-2">
          <mxGeometry relative="1" as="geometry" />
        </mxCell>
        <mxCell id="EJTIUBt2cEUTjr5KvXVu-5" value="ADS(Application Data Store)" style="rounded=1;whiteSpace=wrap;html=1;fillColor=#d5e8d4;strokeColor=#82b366;" vertex="1" parent="1">
          <mxGeometry x="160" y="160" width="400" height="40" as="geometry" />
        </mxCell>
        <mxCell id="EJTIUBt2cEUTjr5KvXVu-6" value="DIM" style="rounded=1;whiteSpace=wrap;html=1;fillColor=#fff2cc;strokeColor=#d6b656;" vertex="1" parent="1">
          <mxGeometry x="580" y="160" width="40" height="280" as="geometry" />
        </mxCell>
      </root>
    </mxGraphModel>
  </diagram>
</mxfile>
